<?xml version="1.0" encoding="UTF-8" standalone="no"?>
<!DOCTYPE svg PUBLIC "-//W3C//DTD SVG 1.1//EN" "http://www.w3.org/Graphics/SVG/1.1/DTD/svg11.dtd">
<svg width="100%" height="100%" viewBox="0 0 650 1103" version="1.1" xmlns="http://www.w3.org/2000/svg" xmlns:xlink="http://www.w3.org/1999/xlink" xml:space="preserve" xmlns:serif="http://www.serif.com/" style="fill-rule:evenodd;clip-rule:evenodd;stroke-linejoin:round;stroke-miterlimit:1.41421;">
    <g transform="matrix(1,0,0,1,-8010.24,-7811.21)">
        <g transform="matrix(8.33333,0,0,8.33333,0,0)">
            <g transform="matrix(1,0,0,1,968.933,999.837)">
                <path d="M0,-7.807L31.258,46.914L62.516,-7.809C64.987,-12.709 66.239,-17.998 66.239,-23.53C66.239,-42.819 50.547,-58.511 31.258,-58.511C11.969,-58.511 -3.724,-42.819 -3.724,-23.53C-3.724,-17.997 -2.471,-12.707 0,-7.807M31.258,54.436L-3.309,-6.081C-6.06,-11.521 -7.455,-17.392 -7.455,-23.53C-7.455,-44.876 9.911,-62.243 31.258,-62.243C52.604,-62.243 69.971,-44.876 69.971,-23.53C69.971,-17.392 68.576,-11.523 65.825,-6.083L65.78,-5.999L31.258,54.436Z" style="fill:white;fill-rule:nonzero;"/>
            </g>
            <g transform="matrix(1,0,0,1,969.154,1000.21)">
                <path d="M0,-8.298L31.037,46.037L62.079,-8.306C64.525,-13.159 65.769,-18.411 65.769,-23.902C65.769,-43.054 50.188,-58.634 31.037,-58.634C11.886,-58.634 -3.694,-43.054 -3.694,-23.902C-3.694,-18.411 -2.451,-13.161 0,-8.298M31.037,47.045L-0.444,-8.068C-2.932,-13.002 -4.194,-18.33 -4.194,-23.902C-4.194,-43.329 11.611,-59.134 31.037,-59.134C50.464,-59.134 66.269,-43.329 66.269,-23.902C66.269,-18.332 65.007,-13.005 62.519,-8.069L31.037,47.045ZM31.037,-62.365C9.829,-62.365 -7.425,-45.111 -7.425,-23.902C-7.425,-17.804 -6.039,-11.972 -3.306,-6.568L31.037,53.559L65.384,-6.573C68.114,-11.973 69.5,-17.805 69.5,-23.902C69.5,-45.111 52.246,-62.365 31.037,-62.365M31.037,54.567L-3.746,-6.33C-6.521,-11.817 -7.925,-17.725 -7.925,-23.902C-7.925,-45.387 9.553,-62.865 31.037,-62.865C52.522,-62.865 70,-45.387 70,-23.902C70,-17.726 68.596,-11.818 65.827,-6.343L65.78,-6.255L31.037,54.567Z" style="fill:white;fill-rule:nonzero;"/>
            </g>
            <g transform="matrix(1,0,0,1,1000.19,991.01)">
                <path d="M0,-29.385C-8.101,-29.385 -14.692,-22.794 -14.692,-14.693C-14.692,-6.591 -8.101,0 0,0C8.101,0 14.692,-6.591 14.692,-14.693C14.692,-22.794 8.101,-29.385 0,-29.385M0,3.731C-10.159,3.731 -18.424,-4.533 -18.424,-14.693C-18.424,-24.852 -10.159,-33.116 0,-33.116C10.159,-33.116 18.424,-24.852 18.424,-14.693C18.424,-4.533 10.159,3.731 0,3.731" style="fill:white;fill-rule:nonzero;"/>
            </g>
            <g transform="matrix(1,0,0,1,1000.19,990.76)">
                <path d="M0,-28.885C-7.964,-28.885 -14.442,-22.406 -14.442,-14.443C-14.442,-6.479 -7.964,0 0,0C7.963,0 14.442,-6.479 14.442,-14.443C14.442,-22.406 7.963,-28.885 0,-28.885M0,0.5C-8.239,0.5 -14.942,-6.203 -14.942,-14.443C-14.942,-22.682 -8.239,-29.385 0,-29.385C8.239,-29.385 14.942,-22.682 14.942,-14.443C14.942,-6.203 8.239,0.5 0,0.5M0,-32.616C-10.021,-32.616 -18.174,-24.464 -18.174,-14.443C-18.174,-4.421 -10.021,3.731 0,3.731C10.021,3.731 18.174,-4.421 18.174,-14.443C18.174,-24.464 10.021,-32.616 0,-32.616M0,4.231C-10.297,4.231 -18.674,-4.146 -18.674,-14.443C-18.674,-24.739 -10.297,-33.116 0,-33.116C10.297,-33.116 18.674,-24.739 18.674,-14.443C18.674,-4.146 10.297,4.231 0,4.231" style="fill:white;fill-rule:nonzero;"/>
            </g>
            <g transform="matrix(1,0,0,1,1023.44,1065.49)">
                <path d="M0,4.199L-46.491,4.199C-47.651,4.199 -48.591,3.26 -48.591,2.099C-48.591,0.939 -47.651,0 -46.491,0L0,0C1.16,0 2.1,0.939 2.1,2.099C2.1,3.26 1.16,4.199 0,4.199" style="fill:white;fill-rule:nonzero;"/>
            </g>
        </g>
    </g>
</svg>
